<svg data-logo="logo" xmlns="http://www.w3.org/2000/svg" viewBox="0 0 253 42">
  <g id="logogram" transform="translate(0, 1) rotate(0) "><path fill-rule="evenodd" clip-rule="evenodd" d="M20 0C27.4768 0 31.2154 -0.000204921 34 1.60742C35.8242 2.66064 37.3394 4.17577 38.3926 6C40.0002 8.7846 40 12.5232 40 20C40 27.4768 40.0002 31.2154 38.3926 34C37.3394 35.8242 35.8242 37.3394 34 38.3926C31.2154 40.0002 27.4768 40 20 40C12.5232 40 8.7846 40.0002 6 38.3926C4.17577 37.3394 2.66064 35.8242 1.60742 34C-0.000204921 31.2154 0 27.4768 0 20C0 12.5232 -0.000204921 8.7846 1.60742 6C2.66064 4.17577 4.17577 2.66064 6 1.60742C8.7846 -0.000204921 12.5232 0 20 0ZM22 4C13.1634 4 6 11.1634 6 20C6 28.8366 13.1634 36 22 36C30.8366 36 38 28.8366 38 20C38 11.1634 30.8366 4 22 4Z" fill="#FF4D00"/><path d="M36 20C36 25.5228 31.5228 30 26 30C20.4772 30 16 25.5228 16 20C16 14.4772 20.4772 10 26 10C31.5228 10 36 14.4772 36 20Z" fill="#FF4D00"/></g>
  <g id="logotype" transform="translate(46, 8)"><path fill="#111111" d="M19.59 6.14L19.59 26L14.61 26L14.61 6.14L6.72 6.14L6.72 1.70L27.48 1.70L27.48 6.14L19.59 6.14ZM39.03 26.45L39.03 26.45Q35.31 26.45 32.54 24.91Q29.76 23.36 28.23 20.52Q26.70 17.69 26.70 13.91L26.70 13.91Q26.70 10.07 28.23 7.25Q29.76 4.43 32.54 2.88Q35.31 1.34 39.03 1.34L39.03 1.34Q42.03 1.34 44.36 2.37Q46.68 3.41 48.17 5.33Q49.65 7.25 50.04 9.92L50.04 9.92L44.76 9.92Q44.43 7.97 42.90 6.90Q41.37 5.84 39.03 5.84L39.03 5.84Q35.67 5.84 33.72 7.97Q31.77 10.10 31.77 13.91L31.77 13.91Q31.77 17.69 33.72 19.84Q35.67 21.98 39.03 21.98L39.03 21.98Q41.37 21.98 42.90 20.90Q44.43 19.82 44.76 17.87L44.76 17.87L50.04 17.87Q49.65 20.54 48.17 22.48Q46.68 24.41 44.36 25.43Q42.03 26.45 39.03 26.45ZM62.70 26.36L62.70 26.36Q59.16 26.36 56.48 24.79Q53.79 23.21 52.28 20.39Q50.76 17.57 50.76 13.88L50.76 13.88Q50.76 10.10 52.32 7.28Q53.88 4.46 56.70 2.90Q59.52 1.34 63.27 1.34L63.27 1.34Q66.30 1.34 68.61 2.37Q70.92 3.41 72.41 5.33Q73.89 7.25 74.28 9.92L74.28 9.92L68.97 9.92Q68.64 7.97 67.14 6.90Q65.64 5.84 63.27 5.84L63.27 5.84Q61.02 5.84 59.36 6.81Q57.69 7.79 56.78 9.62Q55.86 11.45 55.86 13.91L55.86 13.91Q55.86 16.43 56.79 18.27Q57.72 20.12 59.40 21.13Q61.08 22.13 63.36 22.13L63.36 22.13Q65.04 22.13 66.39 21.59Q67.74 21.05 68.52 20.09Q69.30 19.13 69.30 17.93L69.30 17.93L69.30 17L62.91 17L62.91 13.07L70.53 13.07Q72.39 13.07 73.34 13.97Q74.28 14.87 74.28 16.64L74.28 16.64L74.28 26L69.60 26L69.60 23.18L69.45 23.18Q68.61 24.74 66.87 25.55Q65.13 26.36 62.70 26.36ZM96.15 6.14L96.15 26L91.17 26L91.17 6.14L83.28 6.14L83.28 1.70L104.04 1.70L104.04 6.14L96.15 6.14ZM109.41 26L104.52 26L104.52 12.92L102.06 12.92L102.06 8L107.10 8L107.10 11.54L108.36 11.54Q109.08 9.65 110.64 8.72Q112.20 7.79 114.15 7.79L114.15 7.79L115.68 7.79L115.68 12.11L113.94 12.11Q111.60 12.11 110.51 13.43Q109.41 14.75 109.41 16.91L109.41 16.91L109.41 26ZM122.52 26.33L122.52 26.33Q119.34 26.33 117.54 24.79Q115.74 23.24 115.74 20.72L115.74 20.72Q115.74 18.05 117.60 16.61Q119.46 15.17 122.94 15.17L122.94 15.17L128.10 15.17L128.10 14.48Q128.10 11.57 124.62 11.57L124.62 11.57Q121.59 11.57 120.96 13.67L120.96 13.67L116.01 13.67Q116.61 10.70 118.80 9.17Q120.99 7.64 124.62 7.64L124.62 7.64Q128.64 7.64 130.76 9.44Q132.87 11.24 132.87 14.69L132.87 14.69L132.87 21.08L135.21 21.08L135.21 26L130.17 26L130.17 23.06L128.91 23.06Q127.98 24.62 126.42 25.48Q124.86 26.33 122.52 26.33ZM123.27 22.55L123.27 22.55Q124.68 22.55 125.76 22.04Q126.84 21.53 127.47 20.68Q128.10 19.82 128.10 18.74L128.10 18.74L128.10 18.47L123.18 18.47Q120.48 18.47 120.48 20.48L120.48 20.48Q120.48 21.47 121.23 22.01Q121.98 22.55 123.27 22.55ZM145.35 26.36L145.35 26.36Q142.53 26.36 140.41 25.20Q138.30 24.05 137.12 21.95Q135.93 19.85 135.93 17L135.93 17Q135.93 14.15 137.10 12.05Q138.27 9.95 140.40 8.79Q142.53 7.64 145.35 7.64L145.35 7.64Q148.92 7.64 151.23 9.44Q153.54 11.24 154.14 14.39L154.14 14.39L149.13 14.39Q148.74 13.22 147.78 12.59Q146.82 11.96 145.35 11.96L145.35 11.96Q143.34 11.96 142.13 13.28Q140.91 14.60 140.91 17L140.91 17Q140.91 19.40 142.14 20.72Q143.37 22.04 145.35 22.04L145.35 22.04Q148.53 22.04 149.22 19.34L149.22 19.34L154.23 19.34Q153.69 22.64 151.38 24.50Q149.07 26.36 145.35 26.36ZM160.29 26L155.31 26L155.31 0.80L160.29 0.80L160.29 14.45L160.41 14.45L167.49 8L173.43 8L165.78 14.90L174 26L168.18 26L162.27 17.93L160.29 19.55L160.29 26ZM182.88 26.36L182.88 26.36Q179.97 26.36 177.81 25.20Q175.65 24.05 174.48 21.93Q173.31 19.82 173.31 16.94L173.31 16.94Q173.31 14.06 174.45 11.97Q175.59 9.89 177.70 8.76Q179.82 7.64 182.70 7.64L182.70 7.64Q185.52 7.64 187.54 8.72Q189.57 9.80 190.65 11.81Q191.73 13.82 191.73 16.61L191.73 16.61L191.73 18.29L178.08 18.29Q178.38 20.30 179.61 21.35Q180.84 22.40 182.85 22.40L182.85 22.40Q184.44 22.40 185.37 21.86Q186.30 21.32 186.69 20.21L186.69 20.21L191.67 20.21Q191.07 23.09 188.76 24.73Q186.45 26.36 182.88 26.36ZM178.20 14.99L178.20 14.99L186.96 14.99Q186.72 13.28 185.64 12.42Q184.56 11.57 182.73 11.57L182.73 11.57Q180.90 11.57 179.74 12.44Q178.59 13.31 178.20 14.99ZM200.07 26L195.18 26L195.18 12.92L192.72 12.92L192.72 8L197.76 8L197.76 11.54L199.02 11.54Q199.74 9.65 201.30 8.72Q202.86 7.79 204.81 7.79L204.81 7.79L206.34 7.79L206.34 12.11L204.60 12.11Q202.26 12.11 201.16 13.43Q200.07 14.75 200.07 16.91L200.07 16.91L200.07 26Z"/></g>
</svg>
    